<svg width="13" height="13" viewBox="0 0 13 13" fill="none" xmlns="http://www.w3.org/2000/svg">
<circle cx="6.5" cy="6.5" r="6.5" fill="#9E80E1"/>
<path d="M6.50427 4.99153C6.36182 4.99153 6.24217 4.9435 6.1453 4.84746C6.04843 4.75141 6 4.63559 6 4.5C6 4.36441 6.04843 4.24859 6.1453 4.15254C6.24217 4.05085 6.36182 4 6.50427 4C6.64103 4 6.75783 4.05085 6.8547 4.15254C6.95157 4.24859 7 4.36441 7 4.5C7 4.63559 6.95157 4.75141 6.8547 4.84746C6.75783 4.9435 6.64103 4.99153 6.50427 4.99153ZM6.1282 10V5.76271H6.87179V10H6.1282Z" fill="#F2E9F2"/>
</svg>
