<svg width="26" height="45" viewBox="0 0 26 45" fill="none" xmlns="http://www.w3.org/2000/svg">
<path d="M24.9542 13.4232C24.7808 13.2325 24.5901 13.0764 24.3993 12.9376C23.3068 12.1052 22.0409 11.8451 21.538 11.8451C20.3935 11.8451 19.1796 12.3307 18.2951 13.0244C18.1044 13.1804 17.9136 13.3365 17.7576 13.51C17.6709 13.5967 17.6015 13.6834 17.5321 13.7701C17.3587 13.9956 17.22 14.221 17.1159 14.4638C17.0639 14.6025 17.0119 14.7413 16.9945 14.88L16.7171 16.4929C16.6824 16.6663 16.613 16.8224 16.5263 16.9611C16.4916 17.0132 16.4396 17.0652 16.4049 17.1172C16.1968 17.3254 15.902 17.4467 15.5899 17.4467C15.5552 17.4467 15.5205 17.4467 15.4858 17.4467C15.4512 17.4467 15.4165 17.4467 15.3818 17.4467C15.1564 17.4121 14.9656 17.308 14.8095 17.1693C14.8095 17.1693 14.7922 17.1519 14.7748 17.1346C14.7402 17.0999 14.7055 17.0479 14.6708 17.0132C14.5494 16.8571 14.48 16.6663 14.4454 16.4756C14.4454 16.3542 14.428 16.2328 14.4454 16.1114L14.48 15.9553L14.5494 15.5044L15.6766 8.94882L17.1333 0.537619C17.1333 0.537619 17.1333 0.416223 17.1333 0.364195C17.1333 0.346852 17.1333 0.329512 17.1333 0.312169C17.1333 0.312169 17.1333 0.312165 17.1333 0.294823C17.0639 0.121396 16.9078 0 16.7171 0H5.28912C5.08102 0 4.89026 0.0867087 4.76887 0.22545C4.75153 0.242793 4.73419 0.260137 4.71685 0.294823C4.71685 0.312165 4.68217 0.346852 4.66483 0.364195C4.66483 0.364195 4.66483 0.381532 4.66483 0.398874C4.66483 0.43356 4.63015 0.468254 4.63015 0.50294C4.63015 0.537625 4.63015 0.572306 4.61281 0.606992C4.61281 0.641677 4.61281 0.676358 4.61281 0.711043L4.57812 0.91916L4.5261 1.23133L4.47407 1.5435V1.64755L4.4394 1.75162V1.85567L4.37003 2.16784L4.31801 2.48001L4.26597 2.79217V2.89623L4.2313 3.00028V3.10434L4.16193 3.41651L4.10991 3.72868L4.05789 4.04085V4.1449L4.0232 4.24895V4.35302L3.95384 4.66519L3.90181 4.97736L3.84978 5.28951V5.39358L3.81511 5.49763V5.60168L3.74574 5.91385L3.69372 6.22602L3.6417 6.53819V6.64225L3.60701 6.74631V6.85036L3.53764 7.16253L3.48562 7.4747L3.4336 7.78686V7.89092L3.39891 7.99498V8.09903L3.32955 8.4112L3.27752 8.72337L3.22549 9.03554V9.13959L3.19082 9.24366V9.34771L3.12145 9.65988L3.06943 9.97205L3.01741 10.2842V10.3883L2.98272 10.4923V10.5964L2.91335 10.9086L2.86133 11.2207L2.80931 11.5329V11.6369L2.77463 11.741V11.8451L2.70526 12.1572L2.65324 12.4694L2.6012 12.7816V12.8856L2.56653 12.9897V13.0937L2.49716 13.4059L2.44514 13.7181L2.39312 14.0302V14.1343L2.35843 14.2383V14.3424L2.28906 14.6546L2.23704 14.9667L2.18502 15.2789V15.383L2.15034 15.487V15.5737V15.5911L2.0983 15.9032L2.04628 16.2154L1.99426 16.5276V16.6316L1.95958 16.7357V16.8398L1.89022 17.1519L1.83819 17.4641L1.78617 17.7763V17.8803L1.75148 17.9844V18.0884L1.68211 18.4006L1.63009 18.7128L1.57807 19.0249V19.129L1.54338 19.233V19.3371L1.47403 19.6493L1.42199 19.9614L1.36997 20.2736V20.3777L1.33529 20.4817V20.5858L1.26593 20.8979L1.2139 21.2101L1.16188 21.5223V21.6263L1.12719 21.7304V21.8344L1.05782 22.1466L1.0058 22.4588L0.95378 22.7709V22.875L0.919103 22.9791V23.0831L0.849736 23.3953L0.797701 23.7075L0.745679 24.0196V24.1237L0.711002 24.2277V24.3318L0.641635 24.644L0.589613 24.9561L0.537591 25.2683V25.3724L0.502901 25.4764V25.5805L0.433534 25.8926L0.381512 26.2048L0.32949 26.517V26.621L0.294813 26.7251V26.8291L0.225446 27.1413L0.173424 27.4535L0.121389 27.7657V27.8697L0.0867121 27.9738V28.0778C0.0867121 28.1819 0.0520352 28.2859 0.0520352 28.39C0.0520352 28.494 0.0346864 28.5981 0.0173451 28.7021C0.0173451 28.8062 0.0173414 28.9103 0 29.0143C0 29.049 0 29.0837 0 29.1184C0 29.1531 0 29.1877 0 29.2224C0 29.2571 0 29.2918 0 29.3265C0 29.4305 0 29.5346 0 29.6387C0 29.7427 0 29.8468 0 29.9508C0 30.0549 3.7048e-06 30.1589 0.0173451 30.263C0.0173451 30.2977 0.0173451 30.3324 0.0173451 30.3671C0.0173451 30.4017 0.0173451 30.4364 0.0173451 30.4711C0.0173451 30.5058 0.0173451 30.5405 0.0173451 30.5752C0.0173451 30.6792 0.0520257 30.7833 0.069367 30.8873C0.0867084 30.9914 0.104051 31.0954 0.138734 31.1995C0.156075 31.3036 0.19076 31.4076 0.208101 31.5117C0.208101 31.5464 0.225437 31.581 0.242778 31.6157C0.242778 31.6504 0.260127 31.6851 0.277468 31.7198C0.277468 31.7545 0.294804 31.7891 0.312145 31.8238C0.346828 31.9279 0.38151 32.0319 0.433534 32.136C0.485558 32.2401 0.520244 32.3441 0.572268 32.4482C0.624292 32.5522 0.676323 32.6563 0.728347 32.7603C0.745689 32.795 0.763018 32.8297 0.797701 32.8644C0.815042 32.8991 0.832385 32.9338 0.867068 32.9685C0.884409 33.0031 0.919094 33.0378 0.936435 33.0725C1.0058 33.1766 1.09252 33.2806 1.16188 33.3847C1.24859 33.5061 1.35263 33.6101 1.43934 33.6968C1.54338 33.8009 1.64744 33.905 1.76883 34.009C1.80351 34.0437 1.85553 34.0784 1.89022 34.1131C1.94224 34.1478 1.97693 34.1824 2.02895 34.2171C2.08097 34.2518 2.11565 34.2865 2.16767 34.3212C2.34108 34.4426 2.5145 34.5466 2.67057 34.6334C2.93069 34.7721 3.17347 34.8762 3.39891 34.9455C3.91915 35.1363 4.28332 35.171 4.33534 35.1883C4.40471 35.1883 4.47408 35.223 4.54344 35.2403C4.56078 35.2403 4.57812 35.2403 4.59546 35.2403C4.63015 35.2403 4.64749 35.2403 4.68218 35.2403C4.69952 35.2403 4.7342 35.2403 4.75154 35.2403C4.76888 35.2403 4.80357 35.2403 4.82091 35.2403C4.87293 35.2403 4.90761 35.2403 4.95963 35.2403C4.99431 35.2403 5.01166 35.2403 5.04634 35.2403C5.09837 35.2403 5.13305 35.2403 5.18508 35.2403C5.18508 35.2403 5.21976 35.2403 5.2371 35.2403C5.28912 35.2403 5.34114 35.2403 5.41051 35.2403C5.42785 35.2403 5.46254 35.2403 5.47988 35.2403C5.5319 35.2403 5.56659 35.2403 5.61861 35.2403C5.65329 35.2403 5.67063 35.2403 5.70531 35.2403C5.75733 35.2403 5.79202 35.2403 5.84404 35.223C5.87873 35.223 5.89607 35.223 5.93076 35.223C5.98278 35.223 6.01745 35.2057 6.06948 35.1883C6.10416 35.1883 6.12151 35.1883 6.15619 35.171C6.20821 35.171 6.2429 35.1536 6.29492 35.1363C6.31226 35.1363 6.34695 35.1363 6.36429 35.1189C6.41631 35.1189 6.46834 35.0843 6.5377 35.0669C6.5377 35.0669 6.57238 35.0669 6.58972 35.0496C6.65909 35.0149 6.72845 34.9975 6.81516 34.9629C6.81516 34.9629 6.8325 34.9629 6.84985 34.9629C6.90187 34.9282 6.97123 34.9108 7.02326 34.8762C7.0406 34.8762 7.07528 34.8588 7.09262 34.8415C7.14465 34.8241 7.19668 34.7894 7.23136 34.7721C7.2487 34.7721 7.28337 34.7374 7.30071 34.7201C7.33539 34.7027 7.37009 34.668 7.40477 34.6507C7.40477 34.6507 7.40477 34.6507 7.42211 34.6507C7.4568 34.6507 7.47413 34.616 7.50881 34.5987C7.56084 34.564 7.59552 34.5466 7.6302 34.512C7.64754 34.4946 7.68223 34.4773 7.69957 34.4599C7.75159 34.4252 7.78628 34.3906 7.8383 34.3559C7.8383 34.3559 7.89033 34.3212 7.90767 34.3038C7.92501 34.3038 7.94235 34.2692 7.95969 34.2518C7.99437 34.2345 8.02905 34.1998 8.04639 34.1651C8.04639 34.1651 8.06374 34.1651 8.08108 34.1478C8.08108 34.1478 8.08108 34.1478 8.09843 34.1304C8.13311 34.0957 8.15044 34.0784 8.18513 34.0437C8.21981 34.009 8.2545 33.9743 8.28918 33.9396C8.28918 33.9396 8.28918 33.9396 8.28918 33.9223C8.34121 33.8703 8.39323 33.8009 8.46259 33.7489C8.46259 33.7315 8.49727 33.7142 8.51462 33.6968C8.5493 33.6448 8.60132 33.6101 8.636 33.5581C8.65335 33.5234 8.67069 33.5061 8.70537 33.4714C8.70537 33.4714 8.72271 33.4367 8.74005 33.4367C8.74005 33.4367 8.79207 33.3673 8.80941 33.3327C8.82676 33.298 8.8441 33.2806 8.87878 33.2459C8.91346 33.2112 8.93081 33.1766 8.96549 33.1245C8.96549 33.1245 8.96548 33.1072 8.98283 33.0899C8.98283 33.0725 9.01751 33.0378 9.03485 33.0205C9.03485 33.0205 9.03485 33.0031 9.03485 32.9858C9.03485 32.9684 9.06954 32.9338 9.08688 32.9164C9.08688 32.8817 9.12156 32.8644 9.13891 32.8297C9.13891 32.8124 9.17359 32.7777 9.19093 32.7603C9.22561 32.691 9.26029 32.6389 9.29497 32.5696C9.29497 32.5696 9.29497 32.5349 9.31232 32.5349C9.31232 32.5349 9.31232 32.5002 9.32966 32.5002C9.38169 32.4135 9.41636 32.3094 9.46838 32.2227C9.46838 32.2227 9.46838 32.2227 9.46838 32.2054C9.50306 32.1187 9.53776 32.0319 9.58978 31.9279C9.58978 31.8932 9.60712 31.8585 9.62446 31.8412C9.62446 31.8065 9.6418 31.7718 9.65914 31.7371C9.65914 31.7024 9.67649 31.6677 9.69383 31.6331C9.69383 31.5984 9.72851 31.5464 9.72851 31.5117C9.74585 31.4423 9.76319 31.3903 9.78053 31.3209C9.78053 31.2689 9.79788 31.2342 9.81522 31.1821C9.81522 31.1301 9.8499 31.0781 9.86724 31.0087C9.86724 31.0087 9.86724 30.9914 9.86724 30.974C9.86724 30.922 9.88457 30.8873 9.90192 30.8353C9.90192 30.8006 9.91926 30.7486 9.93661 30.7139C9.93661 30.6792 9.93661 30.6619 9.95395 30.6272C9.95395 30.5925 9.95394 30.5578 9.97128 30.5231C9.97128 30.5231 9.97128 30.5058 9.97128 30.4885C9.97128 30.4711 9.97128 30.4364 9.97128 30.4191C9.97128 30.3671 9.98863 30.2977 10.006 30.2457C10.006 30.211 10.006 30.1589 10.0233 30.1243C10.0233 30.0202 10.058 29.9161 10.058 29.8121C10.058 29.8121 10.058 29.7774 10.058 29.76C10.058 29.7254 10.058 29.6907 10.0753 29.656C10.0753 29.656 10.0753 29.6387 10.0753 29.6213C10.0753 29.604 10.0753 29.5693 10.0927 29.5519C10.0927 29.5519 10.0927 29.5346 10.0927 29.5173C10.0927 29.4999 10.0927 29.4826 10.11 29.4652C10.11 29.4652 10.11 29.4479 10.1274 29.4305C10.1274 29.4305 10.1447 29.3959 10.162 29.3785C10.162 29.3785 10.162 29.3612 10.1794 29.3438C10.1794 29.3438 10.1967 29.3091 10.2141 29.3091C10.2141 29.3091 10.2141 29.2918 10.2314 29.2745C10.2314 29.2745 10.2314 29.2571 10.2488 29.2398C10.2488 29.2398 10.2488 29.2398 10.2661 29.2224C10.2661 29.2224 10.2661 29.2051 10.3008 29.1878C10.3181 29.1704 10.3355 29.1531 10.3528 29.1357C10.3528 29.1357 10.3528 29.1357 10.3701 29.1357C10.4048 29.1184 10.4222 29.101 10.4569 29.0664C10.4569 29.0664 10.4568 29.0664 10.4742 29.0664C10.4915 29.0664 10.5262 29.0317 10.5436 29.0317C10.5436 29.0317 10.5609 29.0317 10.5782 29.0143C10.5956 29.0143 10.6129 28.997 10.6476 28.9796H10.6823C10.6823 28.9796 10.717 28.9796 10.7343 28.9796H10.769C10.7863 28.9796 10.8037 28.9796 10.8384 28.9796H10.873C10.8904 28.9796 10.9251 28.9796 10.9424 28.9796H10.9771C10.9944 28.9796 11.0291 28.9796 11.0465 28.9796C11.0465 28.9796 11.0638 28.9796 11.0811 28.9796C11.0985 28.9796 11.1332 28.9796 11.1505 28.9796C11.1505 28.9796 11.1678 28.9796 11.1852 28.9796C11.2199 28.9796 11.2545 28.9796 11.2892 28.9796C11.2892 28.9796 11.3239 28.9796 11.3413 28.9796C11.3413 28.9796 11.3413 28.9796 11.3586 28.9796C11.3586 28.9796 11.3933 28.9796 11.4106 28.9796C11.428 28.9796 11.4453 28.9796 11.4626 28.997C11.6187 29.049 11.7401 29.1357 11.8615 29.2398C11.8788 29.2571 11.8962 29.2745 11.9309 29.3091C11.9655 29.3438 11.9829 29.3612 12.0002 29.3959C12.0349 29.4305 12.0522 29.4826 12.0869 29.5173C12.0869 29.5519 12.1216 29.5693 12.139 29.604C12.1736 29.6733 12.191 29.7427 12.2083 29.8121C12.2083 29.8294 12.2083 29.8641 12.2083 29.8814C12.2083 29.8814 12.2083 29.8815 12.2083 29.8988C12.2083 30.0028 12.2083 30.1069 12.2083 30.211C12.2083 30.2283 12.2083 30.2456 12.2083 30.263L12.1563 30.5058L12.1043 30.818L12.0523 31.1301L11.9829 31.4423L11.9309 31.7371L11.8788 32.0493L11.8268 32.3615L11.7575 32.6736L11.7054 32.9858L11.6534 33.298L11.6014 33.6101L11.532 33.9223L11.48 34.2345L11.428 34.5466L11.3759 34.8588L11.3066 35.171L11.2546 35.4831L11.2025 35.7953L11.1505 36.1075L11.0811 36.4197L11.0291 36.7318L10.9771 37.044L10.9251 37.3562L10.8557 37.6683L10.8037 37.9805L10.7517 38.2927L10.6996 38.6048L10.6303 38.917L10.5782 39.2292L10.5262 39.5413L10.4742 39.8535L10.4048 40.1657L10.3528 40.4778L10.3008 40.79L10.2488 41.1022L10.1794 41.4143L10.1274 41.7265L10.0753 42.0387L10.0233 42.3508L9.95395 42.663L9.90192 42.9752L9.84989 43.2874L9.79787 43.5995L9.7632 43.7729C9.7632 43.7729 9.7632 43.877 9.7632 43.929C9.7632 43.9811 9.7632 44.0331 9.7632 44.0678C9.7632 44.0678 9.7632 44.0851 9.7632 44.1025C9.7632 44.1371 9.78053 44.1892 9.79787 44.2239C9.83255 44.3279 9.88459 44.4146 9.95395 44.5013C9.95395 44.5013 9.95394 44.5187 9.97128 44.536C9.97128 44.5534 10.006 44.5707 10.0233 44.5881C10.0927 44.6574 10.1794 44.7094 10.2661 44.7615C10.3008 44.7615 10.3355 44.7962 10.3701 44.8135C10.3875 44.8135 10.4222 44.8135 10.4569 44.8309C10.5262 44.8309 10.5956 44.8482 10.6649 44.8482H20.931C20.931 44.8482 21.0351 44.8482 21.0698 44.8482C21.1044 44.8482 21.1391 44.8482 21.1565 44.8135C21.1912 44.8135 21.2258 44.7788 21.2605 44.7615C21.2779 44.7615 21.2952 44.7441 21.3125 44.7268C21.5033 44.6054 21.6247 44.3799 21.6247 44.1371C21.6247 44.1371 21.7287 43.4781 21.9195 42.3855C22.0235 41.7612 22.1623 40.9808 22.301 40.0963C22.301 40.0269 22.3183 39.9402 22.3357 39.8708C22.4224 39.3506 22.5091 38.7783 22.6131 38.1886C22.6652 37.8591 22.7345 37.4949 22.7865 37.148C22.8386 36.8879 22.8733 36.6104 22.9253 36.3329C22.96 36.1422 22.9773 35.9687 23.012 35.778C23.1334 35.0322 23.2548 34.2691 23.3935 33.4714C23.3935 33.3673 23.4282 33.2806 23.4455 33.1766C23.6536 31.8759 23.8617 30.5578 24.0698 29.2571C24.1045 29.0837 24.1218 28.9276 24.1565 28.7542C24.2259 28.338 24.2779 27.9391 24.3473 27.5229C24.382 27.3494 24.3993 27.1586 24.434 26.9852C24.4513 26.8812 24.4687 26.7598 24.486 26.6557C24.5207 26.4823 24.538 26.3089 24.5727 26.1354C24.5727 26.1007 24.5727 26.0834 24.5727 26.0487C24.5901 25.8926 24.6247 25.7192 24.6421 25.5631C24.6941 25.251 24.7288 24.9561 24.7808 24.6613C24.8675 24.141 24.9369 23.6381 25.0063 23.1525C25.0063 23.0484 25.0409 22.9617 25.0409 22.8577C25.0756 22.6149 25.1103 22.3547 25.145 22.1293C25.249 21.4182 25.3357 20.7592 25.4224 20.1695C25.6132 18.7821 25.7172 17.7936 25.7172 17.3774C25.7172 15.9206 25.197 14.88 24.5034 14.1516L24.9542 13.4232Z" fill="#14121D"/>
</svg>
