<svg width="52" height="52" viewBox="0 0 52 52" fill="none" xmlns="http://www.w3.org/2000/svg">
    <path
        d="M22.2949 8.36332L3.94326 39C3.56489 39.6552 3.36468 40.3981 3.36257 41.1548C3.36045 41.9114 3.55649 42.6554 3.93118 43.3128C4.30587 43.9702 4.84616 44.5179 5.49829 44.9017C6.15042 45.2854 6.89166 45.4917 7.64826 45.5H44.3516C45.1082 45.4917 45.8494 45.2854 46.5016 44.9017C47.1537 44.5179 47.694 43.9702 48.0687 43.3128C48.4434 42.6554 48.6394 41.9114 48.6373 41.1548C48.6352 40.3981 48.435 39.6552 48.0566 39L29.7049 8.36332C29.3187 7.72655 28.7748 7.20008 28.1258 6.8347C27.4769 6.46932 26.7447 6.27737 25.9999 6.27737C25.2552 6.27737 24.523 6.46932 23.874 6.8347C23.225 7.20008 22.6812 7.72655 22.2949 8.36332Z"
        stroke="#F2E9F2" stroke-width="3" stroke-linecap="round" stroke-linejoin="round" />
    <path d="M26 19.5V28.1667" stroke="#F2E9F2" stroke-width="4" stroke-linecap="round"
        stroke-linejoin="round" />
    <path d="M26 36.8333H26.0203" stroke="#F2E9F2" stroke-width="4" stroke-linecap="round"
        stroke-linejoin="round" />
</svg>