<svg width="14" height="14" viewBox="0 0 14 14" fill="none" xmlns="http://www.w3.org/2000/svg">
<mask id="mask0_3543_1035" style="mask-type:alpha" maskUnits="userSpaceOnUse" x="0" y="0" width="14" height="14">
<rect y="0.555664" width="14" height="13" fill="#D9D9D9"/>
</mask>
<g mask="url(#mask0_3543_1035)">
<path d="M2.91667 12.4723C2.59583 12.4723 2.32118 12.3663 2.09271 12.1541C1.86424 11.942 1.75 11.6869 1.75 11.389V8.92442L3.35417 7.23171L4.18542 8.00359L3.01875 9.22234H10.9812L9.84375 8.03067L10.675 7.2588L12.25 8.92442V11.389C12.25 11.6869 12.1358 11.942 11.9073 12.1541C11.6788 12.3663 11.4042 12.4723 11.0833 12.4723H2.91667ZM6.18333 8.35567L4.15625 6.4463C3.93264 6.23866 3.82083 5.98136 3.82083 5.67442C3.82083 5.36748 3.93264 5.11018 4.15625 4.90255L7.01458 2.24838C7.23819 2.04074 7.51528 1.93692 7.84583 1.93692C8.17639 1.93692 8.45347 2.04074 8.67708 2.24838L10.7333 4.13067C10.9569 4.33831 11.0712 4.59334 11.076 4.89577C11.0809 5.1982 10.9715 5.45324 10.7479 5.66088L7.83125 8.36921C7.60764 8.57685 7.33299 8.67841 7.00729 8.6739C6.6816 8.66939 6.40694 8.56331 6.18333 8.35567ZM9.91667 4.889L7.84583 2.99317L4.95833 5.67442L7.02917 7.57025L9.91667 4.889Z" fill="#F7F6FA"/>
</g>
</svg>
