<svg width="6" height="10" viewBox="0 0 6 10" fill="none" xmlns="http://www.w3.org/2000/svg">
<path d="M5.82198 2.99304C5.78152 2.9505 5.73702 2.9157 5.69251 2.88476C5.43763 2.69915 5.14228 2.64115 5.02495 2.64115C4.75792 2.64115 4.47471 2.74942 4.26838 2.9041C4.22387 2.9389 4.17937 2.9737 4.14296 3.01237C4.12273 3.03171 4.10654 3.05105 4.09036 3.07038C4.0499 3.12065 4.01753 3.17092 3.99326 3.22506C3.98112 3.25599 3.96898 3.28693 3.96494 3.31787L3.9002 3.6775C3.89211 3.71617 3.87593 3.75097 3.8557 3.7819C3.84761 3.7935 3.83547 3.80511 3.82738 3.81671C3.77883 3.86311 3.71005 3.89018 3.63722 3.89018C3.62913 3.89018 3.62104 3.89018 3.61295 3.89018C3.60485 3.89018 3.59676 3.89018 3.58867 3.89018C3.53608 3.88244 3.49157 3.85924 3.45516 3.82831C3.45516 3.82831 3.45111 3.82444 3.44707 3.82057C3.43898 3.81284 3.43088 3.80124 3.42279 3.7935C3.39447 3.7587 3.37829 3.71616 3.3702 3.67363C3.3702 3.64656 3.36615 3.61949 3.3702 3.59242L3.37829 3.55762L3.39447 3.45708L3.65745 1.99536L3.9973 0.119875C3.9973 0.119875 3.9973 0.0928071 3.9973 0.0812061C3.9973 0.0773392 3.9973 0.0734727 3.9973 0.0696057C3.9973 0.0696057 3.9973 0.0696049 3.9973 0.0657379C3.98112 0.0270681 3.94471 0 3.9002 0H1.23399C1.18544 0 1.14093 0.0193338 1.11261 0.0502696C1.10856 0.0541366 1.10452 0.0580039 1.10047 0.0657379C1.10047 0.0696049 1.09238 0.0773392 1.08834 0.0812061C1.08834 0.0812061 1.08834 0.0850718 1.08834 0.0889388C1.08834 0.0966727 1.08024 0.104409 1.08024 0.112143C1.08024 0.119877 1.08024 0.12761 1.0762 0.135344C1.0762 0.143078 1.0762 0.150811 1.0762 0.158544L1.0681 0.204949L1.05597 0.274555L1.04383 0.344161V0.367362L1.03574 0.390565V0.413766L1.01956 0.483372L1.00742 0.552978L0.995279 0.622583V0.645784L0.987189 0.668985V0.692189L0.971005 0.761795L0.958868 0.8314L0.946731 0.901006V0.924207L0.938638 0.947408V0.970612L0.922457 1.04022L0.910317 1.10982L0.89818 1.17943V1.20263L0.890089 1.22583V1.24903L0.873906 1.31864L0.861769 1.38824L0.849631 1.45785V1.48105L0.841538 1.50425V1.52745L0.825354 1.59706L0.813217 1.66667L0.80108 1.73627V1.75947L0.792987 1.78268V1.80588L0.776806 1.87548L0.764666 1.94509L0.752529 2.01469V2.0379L0.744438 2.0611V2.0843L0.728255 2.15391L0.716118 2.22351L0.703981 2.29312V2.31632L0.695887 2.33952V2.36272L0.679703 2.43233L0.667566 2.50193L0.655429 2.57154V2.59474L0.647339 2.61794V2.64115L0.631155 2.71075L0.619018 2.78036L0.606878 2.84996V2.87316L0.598787 2.89636V2.91957L0.582604 2.98917L0.570467 3.05878L0.55833 3.12838V3.15159L0.550236 3.17479V3.19799L0.534052 3.26759L0.521915 3.3372L0.509778 3.40681V3.43001L0.501688 3.45321V3.47254V3.47641L0.489548 3.54602L0.477411 3.61562L0.465274 3.68523V3.70843L0.457183 3.73163V3.75483L0.441 3.82444L0.428862 3.89404L0.416725 3.96365V3.98685L0.408632 4.01006V4.03326L0.392448 4.10286L0.380311 4.17247L0.368174 4.24207V4.26527L0.360081 4.28848V4.31168L0.3439 4.38128L0.33176 4.45089L0.319623 4.5205V4.5437L0.311532 4.5669V4.5901L0.295349 4.6597L0.283212 4.72931L0.271074 4.79892V4.82212L0.262981 4.84532V4.86852L0.246797 4.93813L0.23466 5.00773L0.222523 5.07734V5.10054L0.214433 5.12374V5.14694L0.198249 5.21655L0.186109 5.28616L0.173972 5.35576V5.37896L0.165881 5.40217V5.42537L0.149698 5.49497L0.137561 5.56458L0.125424 5.63418V5.65738L0.11733 5.68059V5.70379L0.101146 5.7734L0.0890092 5.843L0.0768722 5.91261V5.93581L0.0687818 5.95901V5.98221L0.0525981 6.05182L0.040461 6.12142L0.0283208 6.19103V6.21423L0.0202305 6.23743V6.26064C0.0202305 6.28384 0.0121402 6.30704 0.0121402 6.33024C0.0121402 6.35344 0.00809257 6.37664 0.00404672 6.39984C0.00404672 6.42305 0.00404585 6.44625 0 6.46945C0 6.47718 0 6.48492 0 6.49265C0 6.50039 0 6.50812 0 6.51585C0 6.52359 0 6.53132 0 6.53905C0 6.56226 0 6.58546 0 6.60866C0 6.63186 0 6.65506 0 6.67827C0 6.70147 8.64267e-07 6.72467 0.00404672 6.74787C0.00404672 6.75561 0.00404672 6.76334 0.00404672 6.77108C0.00404672 6.77881 0.00404672 6.78654 0.00404672 6.79428C0.00404672 6.80201 0.00404672 6.80974 0.00404672 6.81748C0.00404672 6.84068 0.0121379 6.86388 0.0161838 6.88708C0.0202296 6.91029 0.0242759 6.93349 0.0323676 6.95669C0.0364134 6.97989 0.0445055 7.00309 0.0485513 7.02629C0.0485513 7.03403 0.0525958 7.04176 0.0566417 7.0495C0.0566417 7.05723 0.0606893 7.06497 0.0647351 7.0727C0.0647351 7.08043 0.0687796 7.08817 0.0728255 7.0959C0.0809172 7.1191 0.0890088 7.1423 0.101146 7.16551C0.113284 7.18871 0.121376 7.21191 0.133514 7.23511C0.145651 7.25831 0.157791 7.28152 0.169928 7.30472C0.173974 7.31245 0.178017 7.32018 0.186109 7.32792C0.190155 7.33565 0.194201 7.34339 0.202293 7.35112C0.206338 7.35886 0.214431 7.36659 0.218476 7.37432C0.23466 7.39753 0.254891 7.42073 0.271074 7.44393C0.291304 7.471 0.315577 7.4942 0.335807 7.51353C0.360082 7.53674 0.384358 7.55994 0.412679 7.58314C0.42077 7.59087 0.432908 7.59861 0.441 7.60634C0.453137 7.61407 0.46123 7.62181 0.473367 7.62954C0.485505 7.63728 0.493594 7.64501 0.505732 7.65275C0.54619 7.67981 0.586649 7.70302 0.623062 7.72235C0.683749 7.75329 0.740391 7.77649 0.792987 7.79196C0.914362 7.83449 0.999326 7.84223 1.01146 7.84609C1.02765 7.84609 1.04383 7.85383 1.06001 7.8577C1.06406 7.8577 1.06811 7.8577 1.07215 7.8577C1.08024 7.8577 1.08429 7.8577 1.09238 7.8577C1.09643 7.8577 1.10452 7.8577 1.10857 7.8577C1.11261 7.8577 1.1207 7.8577 1.12475 7.8577C1.13689 7.8577 1.14498 7.8577 1.15711 7.8577C1.16521 7.8577 1.16925 7.8577 1.17734 7.8577C1.18948 7.8577 1.19757 7.8577 1.20971 7.8577C1.20971 7.8577 1.2178 7.8577 1.22185 7.8577C1.23399 7.8577 1.24612 7.8577 1.26231 7.8577C1.26635 7.8577 1.27445 7.8577 1.27849 7.8577C1.29063 7.8577 1.29872 7.8577 1.31086 7.8577C1.31895 7.8577 1.32299 7.8577 1.33109 7.8577C1.34322 7.8577 1.35132 7.85769 1.36345 7.85383C1.37155 7.85383 1.37559 7.85383 1.38368 7.85383C1.39582 7.85383 1.40391 7.84996 1.41605 7.84609C1.42414 7.84609 1.42819 7.84609 1.43628 7.84223C1.44842 7.84223 1.45651 7.83836 1.46865 7.83449C1.47269 7.83449 1.48078 7.83449 1.48483 7.83063C1.49697 7.83063 1.5091 7.82289 1.52529 7.81903C1.52529 7.81903 1.53338 7.81903 1.53743 7.81516C1.55361 7.80742 1.56979 7.80356 1.59002 7.79582C1.59002 7.79582 1.59407 7.79582 1.59811 7.79582C1.61025 7.78809 1.62643 7.78422 1.63857 7.77649C1.64262 7.77649 1.65071 7.77262 1.65476 7.76875C1.66689 7.76489 1.67903 7.75715 1.68712 7.75329C1.69117 7.75329 1.69926 7.74555 1.7033 7.74168C1.7114 7.73782 1.71949 7.73008 1.72758 7.72622C1.72758 7.72622 1.72758 7.72622 1.73163 7.72622C1.73972 7.72622 1.74376 7.71848 1.75185 7.71462C1.76399 7.70688 1.77208 7.70302 1.78018 7.69528C1.78422 7.69142 1.79231 7.68755 1.79636 7.68368C1.8085 7.67595 1.81659 7.66821 1.82873 7.66048C1.82873 7.66048 1.84086 7.65275 1.84491 7.64888C1.84896 7.64888 1.853 7.64114 1.85705 7.63728C1.86514 7.63341 1.87323 7.62568 1.87728 7.61794C1.87728 7.61794 1.88132 7.61794 1.88537 7.61408C1.88537 7.61408 1.88537 7.61408 1.88942 7.61021C1.89751 7.60247 1.90155 7.59861 1.90964 7.59087C1.91773 7.58314 1.92583 7.57541 1.93392 7.56767C1.93392 7.56767 1.93392 7.56767 1.93392 7.5638C1.94606 7.5522 1.95819 7.53674 1.97438 7.52514C1.97438 7.52127 1.98247 7.5174 1.98652 7.51353C1.99461 7.50193 2.00674 7.4942 2.01484 7.4826C2.01888 7.47486 2.02293 7.471 2.03102 7.46326C2.03102 7.46326 2.03506 7.45553 2.03911 7.45553C2.03911 7.45553 2.05125 7.44006 2.05529 7.43233C2.05934 7.42459 2.06339 7.42073 2.07148 7.41299C2.07957 7.40526 2.08362 7.39752 2.09171 7.38592C2.09171 7.38592 2.09171 7.38206 2.09575 7.37819C2.09575 7.37432 2.10384 7.36659 2.10789 7.36272C2.10789 7.36272 2.10789 7.35885 2.10789 7.35499C2.10789 7.35112 2.11598 7.34339 2.12003 7.33952C2.12003 7.33179 2.12812 7.32792 2.13217 7.32019C2.13217 7.31632 2.14026 7.30858 2.1443 7.30472C2.15239 7.28925 2.16049 7.27765 2.16858 7.26218C2.16858 7.26218 2.16858 7.25445 2.17262 7.25445C2.17262 7.25445 2.17262 7.24671 2.17667 7.24671C2.18881 7.22738 2.1969 7.20418 2.20903 7.18484C2.20903 7.18484 2.20903 7.18484 2.20903 7.18097C2.21713 7.16164 2.22522 7.1423 2.23736 7.1191C2.23736 7.11137 2.2414 7.10364 2.24545 7.09977C2.24545 7.09203 2.24949 7.0843 2.25354 7.07656C2.25354 7.06883 2.25759 7.0611 2.26163 7.05336C2.26163 7.04563 2.26972 7.03403 2.26972 7.02629C2.27377 7.01083 2.27781 6.99923 2.28186 6.98376C2.28186 6.97216 2.28591 6.96442 2.28995 6.95282C2.28995 6.94122 2.29804 6.92962 2.30209 6.91415C2.30209 6.91415 2.30209 6.91029 2.30209 6.90642C2.30209 6.89482 2.30614 6.88708 2.31018 6.87548C2.31018 6.86775 2.31423 6.85615 2.31827 6.84841C2.31827 6.84068 2.31828 6.83681 2.32232 6.82908C2.32232 6.82134 2.32232 6.81361 2.32636 6.80588C2.32636 6.80588 2.32636 6.80201 2.32636 6.79814C2.32636 6.79428 2.32636 6.78654 2.32636 6.78268C2.32636 6.77108 2.33041 6.75561 2.33446 6.74401C2.33446 6.73627 2.33446 6.72467 2.33851 6.71694C2.33851 6.69374 2.3466 6.67053 2.3466 6.64733C2.3466 6.64733 2.3466 6.6396 2.3466 6.63573C2.3466 6.628 2.3466 6.62026 2.35064 6.61253C2.35064 6.61253 2.35064 6.60866 2.35064 6.6048C2.35064 6.60093 2.35064 6.59319 2.35469 6.58933C2.35469 6.58933 2.35469 6.58546 2.35469 6.58159C2.35469 6.57772 2.35469 6.57386 2.35873 6.56999C2.35873 6.56999 2.35873 6.56613 2.36278 6.56226C2.36278 6.56226 2.36682 6.55453 2.37087 6.55066C2.37087 6.55066 2.37087 6.54679 2.37492 6.54292C2.37492 6.54292 2.37896 6.53519 2.38301 6.53519C2.38301 6.53519 2.38301 6.53132 2.38705 6.52745C2.38705 6.52745 2.38705 6.52359 2.3911 6.51972C2.3911 6.51972 2.3911 6.51972 2.39515 6.51585C2.39515 6.51585 2.39515 6.51199 2.40324 6.50812C2.40728 6.50425 2.41133 6.50039 2.41537 6.49652C2.41537 6.49652 2.41537 6.49652 2.41942 6.49652C2.42751 6.49265 2.43156 6.48879 2.43965 6.48105C2.43965 6.48105 2.43965 6.48105 2.4437 6.48105C2.44774 6.48105 2.45583 6.47332 2.45988 6.47332C2.45988 6.47332 2.46393 6.47332 2.46797 6.46945C2.47202 6.46945 2.47606 6.46558 2.48415 6.46172H2.49225C2.49225 6.46172 2.50034 6.46172 2.50438 6.46172H2.51247C2.51652 6.46172 2.52057 6.46172 2.52866 6.46172H2.53675C2.5408 6.46172 2.54889 6.46172 2.55294 6.46172H2.56103C2.56507 6.46172 2.57316 6.46172 2.57721 6.46172C2.57721 6.46172 2.58125 6.46172 2.5853 6.46172C2.58935 6.46172 2.59744 6.46172 2.60148 6.46172C2.60148 6.46172 2.60553 6.46172 2.60958 6.46172C2.61767 6.46172 2.62576 6.46172 2.63385 6.46172C2.63385 6.46172 2.64194 6.46172 2.64599 6.46172C2.64599 6.46172 2.64599 6.46172 2.65003 6.46172C2.65003 6.46172 2.65813 6.46172 2.66217 6.46172C2.66622 6.46172 2.67026 6.46172 2.67431 6.46558C2.71072 6.47719 2.73904 6.49652 2.76736 6.51972C2.77141 6.52359 2.77546 6.52746 2.78355 6.53519C2.79164 6.54292 2.79569 6.54679 2.79973 6.55452C2.80782 6.56226 2.81187 6.57386 2.81996 6.58159C2.81996 6.58933 2.82805 6.59319 2.8321 6.60093C2.84019 6.6164 2.84423 6.63186 2.84828 6.64733C2.84828 6.6512 2.84828 6.65893 2.84828 6.6628C2.84828 6.6628 2.84828 6.6628 2.84828 6.66667C2.84828 6.68987 2.84828 6.71307 2.84828 6.73627C2.84828 6.74014 2.84828 6.744 2.84828 6.74787L2.83614 6.80201L2.82401 6.87162L2.81187 6.94122L2.79569 7.01083L2.78355 7.07656L2.77141 7.14617L2.75927 7.21578L2.74309 7.28538L2.73095 7.35499L2.71881 7.42459L2.70668 7.4942L2.69049 7.5638L2.67836 7.63341L2.66622 7.70302L2.65408 7.77262L2.6379 7.84223L2.62576 7.91183L2.61362 7.98144L2.60148 8.05104L2.5853 8.12065L2.57316 8.19026L2.56103 8.25986L2.54889 8.32947L2.5327 8.39907L2.52057 8.46868L2.50843 8.53828L2.49629 8.60789L2.48011 8.6775L2.46797 8.7471L2.45583 8.8167L2.4437 8.88631L2.42751 8.95592L2.41537 9.02552L2.40324 9.09513L2.3911 9.16473L2.37492 9.23434L2.36278 9.30394L2.35064 9.37355L2.33851 9.44315L2.32232 9.51276L2.31018 9.58237L2.29804 9.65197L2.28591 9.72158L2.27782 9.76025C2.27782 9.76025 2.27782 9.78345 2.27782 9.79505C2.27782 9.80665 2.27782 9.81825 2.27782 9.82598C2.27782 9.82598 2.27782 9.82985 2.27782 9.83372C2.27782 9.84145 2.28186 9.85306 2.28591 9.86079C2.294 9.88399 2.30614 9.90332 2.32232 9.92266C2.32232 9.92266 2.32232 9.92653 2.32636 9.9304C2.32636 9.93426 2.33446 9.93813 2.33851 9.94199C2.35469 9.95746 2.37492 9.96906 2.39515 9.98066C2.40324 9.98066 2.41133 9.9884 2.41942 9.99226C2.42347 9.99226 2.43156 9.99227 2.43965 9.99613C2.45584 9.99613 2.47202 10 2.4882 10H4.88334C4.88334 10 4.90762 10 4.91571 10C4.9238 10 4.9319 10 4.93594 9.99226C4.94403 9.99226 4.95212 9.98453 4.96022 9.98066C4.96426 9.98066 4.96831 9.9768 4.97235 9.97293C5.01686 9.94586 5.04518 9.89559 5.04518 9.84145C5.04518 9.84145 5.06945 9.69451 5.11396 9.45089C5.13823 9.31168 5.1706 9.13767 5.20297 8.94045C5.20297 8.92498 5.20701 8.90565 5.21106 8.89018C5.23129 8.77417 5.25152 8.64656 5.27579 8.51508C5.28793 8.44161 5.30411 8.3604 5.31625 8.28306C5.32839 8.22506 5.33648 8.16319 5.34862 8.10131C5.35671 8.05878 5.36076 8.02011 5.36885 7.97757C5.39717 7.81129 5.42549 7.64114 5.45786 7.46326C5.45786 7.44006 5.46595 7.42073 5.46999 7.39752C5.51854 7.1075 5.56709 6.81361 5.61564 6.52359C5.62374 6.48492 5.62778 6.45012 5.63587 6.41145C5.65206 6.31864 5.66419 6.2297 5.68038 6.13689C5.68847 6.09822 5.69252 6.05568 5.70061 6.01701C5.70465 5.99381 5.7087 5.96675 5.71274 5.94354C5.72084 5.90487 5.72488 5.8662 5.73298 5.82753C5.73298 5.8198 5.73298 5.81593 5.73298 5.8082C5.73702 5.77339 5.74511 5.73472 5.74916 5.69992C5.76129 5.63032 5.76939 5.56458 5.78152 5.49884C5.80175 5.38283 5.81794 5.27069 5.83412 5.16241C5.83412 5.13921 5.84221 5.11988 5.84221 5.09667C5.8503 5.04254 5.85839 4.98453 5.86649 4.93426C5.89076 4.77572 5.91099 4.62877 5.93122 4.49729C5.97573 4.18793 6 3.96752 6 3.87471C6 3.54988 5.98382 3.15545 5.82198 2.99304Z" fill="#9E80E1"/>
</svg>
