<svg width="118" height="118" viewBox="0 0 118 118" fill="none" xmlns="http://www.w3.org/2000/svg">
<path d="M31.9583 44.25H41.7916" stroke="#141B34" stroke-width="5" stroke-linecap="round" stroke-linejoin="round"/>
<path d="M86.0416 39.3333V19.6666C86.0416 14.2358 90.444 9.83331 95.875 9.83331" stroke="#141B34" stroke-width="5" stroke-linecap="round" stroke-linejoin="round"/>
<path d="M61.4584 88.5V108.167" stroke="#141B34" stroke-width="8" stroke-linecap="round"/>
<path d="M86.0417 25.3645C81.2976 24.5833 75.0239 24.5833 65.7604 24.5833H52.2396C37.8913 24.5833 30.7172 24.5833 25.2865 27.4861C20.9985 29.7781 17.4864 33.2901 15.1944 37.5782C12.2917 43.0089 12.2917 50.1829 12.2917 64.5312C12.2917 73.1403 12.2917 77.4449 14.0334 80.7031C15.4086 83.276 17.5158 85.3833 20.0886 86.7585C23.347 88.5 27.6515 88.5 36.2604 88.5H81.7396C90.3487 88.5 94.6532 88.5 97.9115 86.7585C100.484 85.3833 102.592 83.276 103.967 80.7031C105.708 77.4449 105.708 73.1403 105.708 64.5312C105.708 50.1829 105.708 43.0089 102.806 37.5782C101.95 35.9779 100.925 34.4858 99.7528 33.1248" stroke="#141B34" stroke-width="5" stroke-linecap="round"/>
<path d="M61.4613 88.5V54.0833C61.4613 49.5158 61.4613 47.2319 61.1584 45.321C59.4927 34.802 51.2425 26.552 40.7236 24.886C40.3211 24.8223 39.902 24.7719 39.4486 24.7322" stroke="#141B34" stroke-width="5" stroke-linecap="round"/>
</svg>
