<svg width="15" height="14" viewBox="0 0 15 14" fill="none" xmlns="http://www.w3.org/2000/svg">
    <path
        d="M11.8086 3.42534L10.4359 2.21169C9.44701 1.33722 9.05934 0.866817 8.52379 1.03311C7.85601 1.24047 8.07586 2.54887 8.07586 2.99059C7.03761 2.99059 5.9582 2.90929 4.93481 3.07869C1.55642 3.63794 0.5 6.08528 0.5 8.722C1.45619 8.1252 2.41144 7.45968 3.56067 7.18312C4.99523 6.83784 6.59738 7.00256 8.07586 7.00256C8.07586 7.44432 7.85601 8.75272 8.52379 8.96008C9.1306 9.14848 9.44701 8.65592 10.4359 7.78152L11.8086 6.56784C12.6504 5.82344 13.0714 5.4512 13.0714 4.99659C13.0714 4.542 12.6504 4.16978 11.8086 3.42534Z"
        stroke="#F7F6FA" stroke-linecap="round" stroke-linejoin="round" />
</svg>